# xmcd
#
# Track frame offsets: 
#        150
#        16743
#        40234
#        63804
#        89777
#        118710
#        132296
#        156617
#        175264
#        204429
#        243164
#
# Disc length: 3497 seconds
#
# Revision: 0
# Processed by: cddbd v1.5.2PL0 Copyright (c) Steve Scherf et al.
# Submitted via: ExactAudioCopy v0.99pb4
#
DISCID=920da70b
DTITLE=Eric Steckel - Feels Like Home
DYEAR=2008
DGENRE=Blues
TTITLE0=Just Walk Away
TTITLE1=Feels Like Home
TTITLE2=Southern Skyline
TTITLE3=Don't Look Behind
TTITLE4=Smiling Liar
TTITLE5=C'Mon In My Kitchen
TTITLE6=Something Better
TTITLE7=From Time To Time
TTITLE8=When Ignorance Turns To Bliss
TTITLE9=The Ghetto
TTITLE10=Tuscany
EXTD=
EXTT0=
EXTT1=
EXTT2=
EXTT3=
EXTT4=
EXTT5=
EXTT6=
EXTT7=
EXTT8=
EXTT9=
EXTT10=
PLAYORDER=
